<svg xmlns="http://www.w3.org/2000/svg" xmlns:xlink="http://www.w3.org/1999/xlink" viewBox="0 0 559.06 597.16" id="ImagePost">
  <defs>
    <linearGradient id="c" x1="378.27" x2="394.09" y1="443.42" y2="42.27" gradientUnits="userSpaceOnUse">
      <stop offset="0" stop-color="#ffffff" stop-opacity="0" class="stopColorffffff svgShape"></stop>
      <stop offset="1" stop-color="#e7f9ff" class="stopColore7faff svgShape"></stop>
    </linearGradient>
    <linearGradient id="a" x1="258.68" x2="517.57" y1="227.47" y2="227.47" gradientUnits="userSpaceOnUse">
      <stop offset="0" stop-color="#183f66" class="stopColor183866 svgShape"></stop>
      <stop offset="1" stop-color="#1a96c1" class="stopColor1a7fc1 svgShape"></stop>
    </linearGradient>
    <linearGradient id="b" x1="395.6" x2="395.6" y1="125.07" y2="532.34" gradientUnits="userSpaceOnUse">
      <stop offset="0" stop-opacity="0"></stop>
      <stop offset=".97"></stop>
    </linearGradient>
    <linearGradient xlink:href="#a" id="g" x1="273.76" x2="304.85" y1="208.06" y2="208.06"></linearGradient>
    <linearGradient xlink:href="#b" id="h" x1="280.41" x2="286.47" y1="426.47" y2="426.47"></linearGradient>
    <linearGradient xlink:href="#b" id="i" x1="323.32" x2="329.38" y1="426.47" y2="426.47"></linearGradient>
    <linearGradient xlink:href="#b" id="j" x1="174.01" x2="216.93" y1="300.81" y2="300.81"></linearGradient>
    <linearGradient xlink:href="#b" id="k" x1="174.01" x2="216.93" y1="345.17" y2="345.17"></linearGradient>
    <linearGradient xlink:href="#b" id="l" x1="174.01" x2="216.93" y1="389.54" y2="389.54"></linearGradient>
    <linearGradient xlink:href="#b" id="m" x1="174.01" x2="216.93" y1="433.9" y2="433.9"></linearGradient>
    <linearGradient xlink:href="#b" id="n" x1="174.01" x2="216.93" y1="478.27" y2="478.27"></linearGradient>
    <linearGradient xlink:href="#b" id="o" x1="174.01" x2="216.93" y1="522.63" y2="522.63"></linearGradient>
    <linearGradient xlink:href="#c" id="p" x1="383.2" x2="420.43" y1="9.42" y2="98.77"></linearGradient>
    <linearGradient id="d" x1="136.39" x2="135.95" y1="1.06" y2="16.66" gradientUnits="userSpaceOnUse">
      <stop offset="0" stop-color="#97e3fd" class="stopColor97eafd svgShape"></stop>
      <stop offset="0" stop-color="#a8e7fd" class="stopColora8eefd svgShape"></stop>
      <stop offset="1" stop-color="#e7f9ff" class="stopColore7faff svgShape"></stop>
    </linearGradient>
    <linearGradient xlink:href="#d" id="q" x1="155.02" x2="154.58" y1="1.59" y2="17.19"></linearGradient>
    <linearGradient xlink:href="#d" id="r" x1="64.22" x2="63.78" y1="2.28" y2="17.88"></linearGradient>
    <linearGradient id="e" x1="263.45" x2="208.2" y1="70.12" y2="79.03" gradientUnits="userSpaceOnUse">
      <stop offset="0" stop-color="#68d6fd" class="stopColor68e1fd svgShape"></stop>
      <stop offset=".08" stop-color="#84defd" class="stopColor84e6fd svgShape"></stop>
      <stop offset=".21" stop-color="#a9e8fe" class="stopColora9eefe svgShape"></stop>
      <stop offset=".35" stop-color="#c8f0fe" class="stopColorc8f4fe svgShape"></stop>
      <stop offset=".49" stop-color="#e0f7ff" class="stopColore0f9ff svgShape"></stop>
      <stop offset=".64" stop-color="#f2fcff" class="stopColorf2fcff svgShape"></stop>
      <stop offset=".8" stop-color="#fcfeff" class="stopColorfcfeff svgShape"></stop>
      <stop offset="1" stop-color="#ffffff" class="stopColorffffff svgShape"></stop>
    </linearGradient>
    <linearGradient xlink:href="#e" id="s" x1="271.21" x2="215.95" y1="118.2" y2="127.11"></linearGradient>
    <linearGradient xlink:href="#e" id="t" x1="278.96" x2="223.71" y1="166.27" y2="175.18"></linearGradient>
    <linearGradient xlink:href="#e" id="u" x1="286.72" x2="231.46" y1="214.35" y2="223.26"></linearGradient>
    <linearGradient id="f" x1="237.66" x2="284.34" y1="236.16" y2="236.16" gradientUnits="userSpaceOnUse">
      <stop offset="0" stop-color="#c4e2ec" class="stopColorecc4d7 svgShape"></stop>
      <stop offset=".42" stop-color="#d1e7ef" class="stopColorefd4d1 svgShape"></stop>
      <stop offset="1" stop-color="#c9e7f2" class="stopColorf2eac9 svgShape"></stop>
    </linearGradient>
    <linearGradient xlink:href="#e" id="v" x1="372.68" x2="373.87" y1="303.09" y2="366.95"></linearGradient>
    <linearGradient xlink:href="#c" id="w" x1="607.72" x2="358.28" y1="200.22" y2="196.49"></linearGradient>
    <linearGradient xlink:href="#f" id="x" x1="307.96" x2="355.14" y1="255.07" y2="255.07"></linearGradient>
    <linearGradient xlink:href="#f" id="y" x1="307.86" x2="326.35" y1="430.76" y2="430.76"></linearGradient>
    <linearGradient xlink:href="#f" id="z" x1="275.37" x2="294.66" y1="426.22" y2="426.22"></linearGradient>
    <linearGradient xlink:href="#c" id="A" x1="231.29" x2="262.93" y1="288.42" y2="278.19"></linearGradient>
    <linearGradient xlink:href="#f" id="B" x1="271.9" x2="289.13" y1="212.41" y2="210.33"></linearGradient>
  </defs>
  <path fill="#30bced" d="M117.62 459.98c-18.75 21.89-45.37 39.59-52.16 67.6-5.32 21.92 4.49 46.69 23.37 59 16.14 10.58 36.74 11.95 55.84 9.58s37.75-8 56.88-10.45c22.74-2.84 45.79-1 68.67-2.23s46.56-6.13 64.47-20.42c5.53-4.41 10.53-9.86 12.78-16.57 2.37-7.11 1.43-14.83 1.54-22.33a79.11 79.11 0 0 1 30.26-60.47c10.51-8.13 23-13.5 33.09-22.16a66 66 0 0 0 21.73-59.52c-1.28-7.88-172.89-.43-189.55.18q-23.27.87-46.52 2.13c-10.49.57-32-2.13-40.41 4.88-7.57 6.3-11.48 25.11-16.15 34.13-6.71 12.98-14.32 25.53-23.84 36.65Z" opacity=".18" class="color68e1fd svgShape"></path>
  <path fill="#30bced" d="M557.39 25.54v336.28a25.42 25.42 0 0 1-25.42 25.43H25.42A25.42 25.42 0 0 1 0 361.82V25.54A25.43 25.43 0 0 1 25.42.16h506.55a25.43 25.43 0 0 1 25.42 25.38Z" class="color68e1fd svgShape"></path>
  <path fill="url(#c)" d="M666.82 25.38v336.28a25.42 25.42 0 0 1-25.42 25.43H134.85a25.42 25.42 0 0 1-25.42-25.43V25.38A25.43 25.43 0 0 1 134.85 0H641.4a25.43 25.43 0 0 1 25.42 25.38Z" transform="translate(-109.43 .16)"></path>
  <path fill="url(#a)" d="m267 68-8.31 3.91v167.61L280.41 318l3 68 55 1.05V269.77l22.73-33.61 156.4-.61v-8.71Zm73.64 171.77c-2.2 5-6.88 9.68-10.15 14.06q-6 8.08-12.19 16.11a5 5 0 0 1-1.36 1.35c-1.93 1.09-4.17-.72-5.57-2.43a104 104 0 0 1-18.31-32.74 2.59 2.59 0 0 1-.13-1.87c.41-.9 1.64-1 2.63-1q18.6.51 37.2 1.25c4.24.16 10.49-.75 7.87 5.24Z" opacity=".19" transform="translate(-109.43 .16)"></path>
  <path fill="#ffffff" d="M157.56 63.22h256.76v167.14H157.56z" class="colorffffff svgShape"></path>
  <path fill="#30bced" d="M167.17 72.04h238v149.5h-238z" class="color68e1fd svgShape"></path>
  <path fill="url(#b)" d="M514.6 153.06v68.32h-238v-45.32c13.56-15.14 33.6-25.17 51.45-37.56a49.9 49.9 0 0 1 10.53-6.09c15.32-5.78 31.57 4.29 45.5 12.9a328.8 328.8 0 0 0 53.11 26.48 49.62 49.62 0 0 0-25.6-18.92l24.28-20.12c3-2.49 6.1-5 9.77-6.35 7.37-2.63 15.47.11 22.74 3q15.25 6.09 30.06 13.23c5.8 2.81 11.68 5.84 16.16 10.43Z" transform="translate(-109.43 .16)"></path>
  <path fill="url(#g)" d="M285.79 188.35c1.68 1.93 3.29 4.33 5.81 4.74a6.12 6.12 0 0 1 2.31.49c1 .62 1.12 2 1.15 3.15q.21 7.78.41 15.56c.08 2.91 0 6.12-1.88 8.3-.86 1-2 1.64-2.91 2.62s-1.38 2.5-.62 3.57a40.47 40.47 0 0 1 14.79 2.84l-27.22.56a3.59 3.59 0 0 1-2-.36c-.93-.61-1.07-1.89-1.1-3-.11-4.45 0-8.9.24-13.34a54.75 54.75 0 0 0 .14-8.87c-.37-3.71-1.64-7.42-.92-11.08 1.14-5.91 7.01-10.65 11.8-5.18Z" opacity=".19" transform="translate(-109.43 .16)"></path>
  <circle cx="370.71" cy="101.1" r="16.04" fill="#ffffff" class="colorffffff svgShape"></circle>
  <path fill="#30bced" d="M174.01 581.9a3 3 0 0 0 3-3V274.39a3 3 0 0 0-3-3 3 3 0 0 0-3 3v304.48a3 3 0 0 0 3 3.03ZM216.92 581.9a3 3 0 0 0 3-3V274.39a3 3 0 0 0-3-3 3 3 0 0 0-3 3v304.48a3 3 0 0 0 3 3.03Z" class="color68e1fd svgShape"></path>
  <path fill="#30bced" d="M174.01 297.35h42.91v6.91h-42.91zM174.01 341.72h42.91v6.91h-42.91zM174.01 386.08h42.91v6.91h-42.91zM174.01 430.45h42.91v6.91h-42.91zM174.01 474.81h42.91v6.91h-42.91zM174.01 519.18h42.91v6.91h-42.91z" class="color68e1fd svgShape"></path>
  <path fill="url(#h)" d="M283.44 581.74a3 3 0 0 0 3-3V274.23a3 3 0 0 0-3-3 3 3 0 0 0-3 3v304.48a3 3 0 0 0 3 3.03Z" transform="translate(-109.43 .16)"></path>
  <path fill="url(#i)" d="M326.35 581.74a3 3 0 0 0 3-3V274.23a3 3 0 0 0-3-3 3 3 0 0 0-3 3v304.48a3 3 0 0 0 3 3.03Z" transform="translate(-109.43 .16)"></path>
  <path fill="url(#j)" d="M174.01 297.35h42.91v6.91h-42.91z"></path>
  <path fill="url(#k)" d="M174.01 341.72h42.91v6.91h-42.91z"></path>
  <path fill="url(#l)" d="M174.01 386.08h42.91v6.91h-42.91z"></path>
  <path fill="url(#m)" d="M174.01 430.45h42.91v6.91h-42.91z"></path>
  <path fill="url(#n)" d="M174.01 474.81h42.91v6.91h-42.91z"></path>
  <path fill="url(#o)" d="M174.01 519.18h42.91v6.91h-42.91z"></path>
  <path fill="#30bced" d="M559.06 25.44v5H1.66v-5A25.44 25.44 0 0 1 27.09 0h506.54a25.43 25.43 0 0 1 25.43 25.44Z" class="color68e1fd svgShape"></path>
  <path fill="#30bced" d="M559.06 25.44v5H1.66v-5A25.44 25.44 0 0 1 27.09 0h506.54a25.43 25.43 0 0 1 25.43 25.44Z" class="color68e1fd svgShape"></path>
  <path fill="url(#p)" d="M668.49 25.28v5h-557.4v-5A25.44 25.44 0 0 1 136.52-.16h506.54a25.43 25.43 0 0 1 25.43 25.44Z" transform="translate(-109.43 .16)"></path>
  <path fill="url(#d)" d="M140 15.08a4 4 0 1 1-4-4 4 4 0 0 1 4 4Z" transform="translate(-109.43 .16)"></path>
  <path fill="url(#q)" d="M158.65 15.08a4 4 0 1 1-4-4 4 4 0 0 1 4 4Z" transform="translate(-109.43 .16)"></path>
  <circle cx="63.85" cy="15.23" r="4.01" fill="url(#r)"></circle>
  <path fill="#30bced" d="M122.07 30.47v356.69h-95a25.43 25.43 0 0 1-25.43-25.42V30.47Z" class="color68e1fd svgShape"></path>
  <path fill="url(#e)" d="M215.46 87.58h-87.27a2.67 2.67 0 0 1-2.67-2.68 2.66 2.66 0 0 1 2.67-2.67h87.27a2.67 2.67 0 0 1 2.67 2.67 2.68 2.68 0 0 1-2.67 2.68Z" transform="translate(-109.43 .16)"></path>
  <path fill="url(#s)" d="M215.46 136.9h-87.27a2.67 2.67 0 0 1-2.67-2.67 2.67 2.67 0 0 1 2.67-2.68h87.27a2.68 2.68 0 0 1 2.67 2.68 2.68 2.68 0 0 1-2.67 2.67Z" transform="translate(-109.43 .16)"></path>
  <path fill="url(#t)" d="M215.46 186.23h-87.27a2.67 2.67 0 0 1-2.67-2.68 2.67 2.67 0 0 1 2.67-2.67h87.27a2.68 2.68 0 0 1 2.67 2.67 2.68 2.68 0 0 1-2.67 2.68Z" transform="translate(-109.43 .16)"></path>
  <path fill="url(#u)" d="M215.46 235.55h-87.27a2.66 2.66 0 0 1-2.67-2.67 2.66 2.66 0 0 1 2.67-2.67h87.27a2.67 2.67 0 0 1 2.67 2.67 2.67 2.67 0 0 1-2.67 2.67Z" transform="translate(-109.43 .16)"></path>
  <path fill="url(#f)" d="M246.14 269.5s-4.39 1.17-6.92-1.33-1.22-10.53-1.22-10.53l45.44-55.1.9 15.49Z" transform="translate(-109.43 .16)"></path>
  <path fill="url(#v)" d="M327.26 271.35h90.28v33.4h-90.28z"></path>
  <path fill="#30bced" d="M559.06 30.47v331.25a25.42 25.42 0 0 1-25.43 25.44h-84.35V30.47Z" class="color68e1fd svgShape"></path>
  <path fill="url(#w)" d="M449.28 124.55h109.78v148.24H449.28z"></path>
  <path fill="url(#x)" d="M308 271.2s6.73 9.32 11.05 9.54 30.42-46.14 30.42-46.14l5.71-4.39s-12.39-2-14.06.27-20.91 34-20.91 34l-2.77-1.39Z" transform="translate(-109.43 .16)"></path>
  <path fill="#1d242b" d="M148.62 317.42s-2 12.75 0 18 19.6 36.54 19.6 36.54l-4.54 48h14.31l6.91-48-7.86-36.54 9.31-20.5Z" class="color25233a svgShape"></path>
  <path fill="#3d4956" d="m161.93 332.59 30.77 53.5 3.77 40.54 13.83-3.36-2.33-49.61-19.55-59.73-30 2.84s.77 11.44 3.51 15.82Z" class="color3f3d56 svgShape"></path>
  <path fill="url(#y)" d="M307.86 426s1.62 10.46 2.36 11.22 6.54-.73 6.54-.73l9.59-6.19s0-3-7.22-1.24c0 0-3.22.19-3.46-4.95Z" transform="translate(-109.43 .16)"></path>
  <path fill="url(#z)" d="m287.42 419.77-.95 4.79 8.19 5.73s-.33 1.51-3.23 2.18-15.82-.41-16-1.71 2.08-5.42 2.26-5.87 1.08-5.12 1.08-5.12Z" transform="translate(-109.43 .16)"></path>
  <path fill="#30bced" d="M159.39 228.76s-13.17 3.2-14.95 7.48-16.23 17.65-15.87 22.92 10.27 12.06 10.27 12.06l7.58-7.39.85 49.94a5.81 5.81 0 0 0 4 5.42c5.7 1.85 11.84 1.48 19.7-1.12 11.19-3.7 17.72-3.33 17.72-3.33l-1.93-53 9.1 11.86 12.1-10.41s-17.83-29.03-20.87-30.8-16.65-3.83-16.65-3.83-5.97 3.65-11.05.2Z" class="color68e1fd svgShape"></path>
  <path fill="url(#A)" d="M268.82 228.6s-13.17 3.2-14.95 7.48S237.64 253.73 238 259s10.27 12.06 10.27 12.06l7.58-7.39.85 49.94a5.81 5.81 0 0 0 4 5.42c5.7 1.85 11.84 1.48 19.7-1.12 11.19-3.7 17.72-3.33 17.72-3.33l-1.93-53 9.1 11.86 12.1-10.41s-17.83-29.03-20.87-30.8-16.65-3.83-16.65-3.83-5.97 3.65-11.05.2Z" transform="translate(-109.43 .16)"></path>
  <path fill="url(#B)" d="M285.93 199.19a83.14 83.14 0 0 1 1.26 11.35 13.28 13.28 0 0 1-.24 4.27 4.76 4.76 0 0 1-2.61 3.22 12.62 12.62 0 0 0-2.45.83 3.07 3.07 0 0 0-1.16 1.73 11.62 11.62 0 0 0 0 4 5.42 5.42 0 0 1-.83 3.82 5 5 0 0 1-2.47 1.47 13.29 13.29 0 0 1-6.91.28 2.36 2.36 0 0 1-1-.42 2.55 2.55 0 0 1-.65-1.13 64.65 64.65 0 0 1-2-7.8 58.83 58.83 0 0 1-1.71-11.26 18.64 18.64 0 0 1 2.82-10.86c2.14-3.15 5.82-5.39 9.62-5.14a18.27 18.27 0 0 1 6.06 1.84c1.57.72 1.93 2.08 2.27 3.8Z" transform="translate(-109.43 .16)"></path>
  <path fill="#3d4956" d="M176.5 194.16c.1-1.89-1.4-3.47-2.91-4.6a3.1 3.1 0 0 1-.75-.69 5.94 5.94 0 0 1-.48-1.32c-.61-1.72-2.65-2.49-4.48-2.49s-3.62.55-5.44.5c-1.44 0-3-.44-4.28.17a5.34 5.34 0 0 0-1.89 1.71 8.45 8.45 0 0 0-1.86 3.66 18.32 18.32 0 0 1-.26 1.83 5.47 5.47 0 0 1-1 1.85c-1.9 2.61-4.67 4.8-5.35 7.95-.43 2-.86 4.3.1 6.1 9.31 17.33 11.67 18.33 12.67 18.16s6.22-.38 6.77-7a3.78 3.78 0 0 0 .13-1.37 2.63 2.63 0 0 0-.65-1 8.06 8.06 0 0 1-1.62-2.24 3 3 0 0 1 0-2.67 2.38 2.38 0 0 1 3.75-.25c.62-1.77-1.22-3.77-.46-5.49.45-1 1.72-1.55 2.16-2.6.58-1.4-.46-3.34.65-4.37a8 8 0 0 1 1.18-.67c.63-.39.76-.91 1.07-1.52s.39-.55 1.06-.9a3.43 3.43 0 0 0 1.89-2.75Z" class="color3f3d56 svgShape"></path>
  <path fill="none" d="M231.2 239.9c-2.2 5-6.88 9.68-10.15 14.06q-6 8.08-12.19 16.11a5 5 0 0 1-1.36 1.35c-1.93 1.09-4.17-.72-5.57-2.43a104 104 0 0 1-18.31-32.74 2.59 2.59 0 0 1-.13-1.87c.41-.9 1.64-1 2.63-1q18.6.51 37.2 1.25c4.25.19 10.5-.72 7.88 5.27Z"></path>
  <path fill="#3d4956" d="M201.57 431.63c2.07-.5 3.32-2.57 5.06-3.81a3.5 3.5 0 0 1 1.37-.63 7 7 0 0 1 1.7.08c1.45.13 2.9-.2 4.36-.2a9.21 9.21 0 0 1 2.15.24 4 4 0 0 1 2 1 1.88 1.88 0 0 1 .45 2.08 2.85 2.85 0 0 1-1 1q-5 3.45-10.1 6.88a11.91 11.91 0 0 1-3.3 1.75 5.86 5.86 0 0 1-3.42-.07 2.44 2.44 0 0 1-1.16-.71 2.87 2.87 0 0 1-.47-1.07c-.39-1.4-1.14-3.42-.86-4.89s2.04-1.36 3.22-1.65ZM166.37 426.8l-1.19 4a2.15 2.15 0 0 0 0 1.79 2.09 2.09 0 0 0 1.29.68 21.94 21.94 0 0 0 3.58.68c1.85.13 3.69-.22 5.53-.17 2.09.06 4.21.64 6.22.1a11.77 11.77 0 0 0 3.39-1.8l1.93-1.33a.74.74 0 0 0 .35-.39c.07-.25-.13-.49-.33-.66-1.46-1.26-3.48-1.59-5.28-2.3a12.64 12.64 0 0 1-4.37-2.91 1.91 1.91 0 0 0-.92-.63c-.6-.12-1.12.4-1.64.73a5.64 5.64 0 0 1-3.45.61c-.89-.13-.92-.59-1.47-1.17-1.72-1.77-3.24 1.42-3.64 2.77Z" class="color3f3d56 svgShape"></path>
</svg>
